<svg xmlns="http://www.w3.org/2000/svg" width="208" height="66.132" viewBox="0 0 208 66.132"><defs><style>.a{fill:#fff200;}.b{fill:#00a651;}.c{fill:#fff;}.d{fill:#433a3c;}.e,.f{fill:#00923f;}.e{font-size:18px;font-family:ProximaNova-Semibold, Proxima Nova;font-weight:600;letter-spacing:0.147em;}.f{font-size:23px;font-family:ProximaNova-Extrabld, Proxima Nova;letter-spacing:0.05em;}</style></defs><g transform="translate(-668 -79.5)"><g transform="translate(668 79.5)"><path class="a" d="M447.13,504.519a4.523,4.523,0,0,1,4.833-4.156V493.52a2.629,2.629,0,0,0-2.784-2.4H400.464a2.61,2.61,0,0,0-2.764,2.4v6.843a4.214,4.214,0,1,1,0,8.332v5.915a2.609,2.609,0,0,0,2.764,2.4h48.714a2.629,2.629,0,0,0,2.784-2.4v-5.915A4.543,4.543,0,0,1,447.13,504.519Z" transform="translate(-397.7 -456.887)"/><path class="b" d="M403,495.535s3.074-4.04,3.189-5.529a24.725,24.725,0,0,0,13.744-3.866c2.32,1.353,8.815,4.794,13.532,3.866a27.738,27.738,0,0,0,3.19,5.645,12.133,12.133,0,0,0-1.6,4.253c-.251,2.378.87,8.622.908,11.966a11.6,11.6,0,0,1-4.949,10.149,60.717,60.717,0,0,1-6.882,3.073,41.336,41.336,0,0,0-4.292,2.571,49.555,49.555,0,0,0-8.757-4.775,10.574,10.574,0,0,1-6.959-10.207C403.773,506.244,406.151,500.232,403,495.535Z" transform="translate(-392.755 -461.532)"/><path class="c" d="M22.057,35.024V33.942H21.3V32.82h-.7v-.967h-.541V30.733h-.213l-.735-7.906h.193V21.744h.909v-.909h.638V19.791H20.22V18.96H13.474v.831H12.8v1.044h.677v.909h.909v1.083h.251l-.754,7.906v1.121h-.754v.967h-.812v1.121H11.6v1.083H10.98v1.063H22.791V35.024Z" transform="translate(10.246 17.692)"/><path class="d" d="M10.54,6.77l1.6,3.248,3.576.522-2.59,2.532.619,3.576-3.209-1.7-3.209,1.7.6-3.576L5.34,10.54l3.6-.522Z" transform="translate(4.983 6.317)"/><path class="d" d="M16.531,0l1.6,3.248,3.6.522L19.14,6.3l.6,3.576L16.531,8.2,13.322,9.878,13.94,6.3,11.35,3.77l3.576-.522Z" transform="translate(10.591)"/><path class="d" d="M22.55,6.77l1.6,3.248,3.6.522-2.61,2.532.619,3.576-3.209-1.7-3.209,1.7.619-3.576L17.35,10.54l3.6-.522Z" transform="translate(16.19 6.317)"/></g><text class="e" transform="translate(733 106.504)"><tspan x="0" y="0">Tilang Online</tspan></text><text class="f" transform="translate(733 134)"><tspan x="0" y="0">KEJAKSAAN</tspan></text></g></svg>